<?xml version="1.0" encoding="utf-8"?>
<!-- Generator: Adobe Illustrator 16.0.0, SVG Export Plug-In . SVG Version: 6.00 Build 0)  -->
<!DOCTYPE svg PUBLIC "-//W3C//DTD SVG 1.1//EN" "http://www.w3.org/Graphics/SVG/1.1/DTD/svg11.dtd">
<svg version="1.1" id="Layer_1" xmlns="http://www.w3.org/2000/svg" xmlns:xlink="http://www.w3.org/1999/xlink" x="0px" y="0px"
	 width="236.95px" height="211.752px" viewBox="0 77.748 236.95 211.752" enable-background="new 0 77.748 236.95 211.752"
	 xml:space="preserve">
<g>
	<g>
		
			<path opacity="0.4" fill="none" stroke="#FFFFFF" stroke-linejoin="round" stroke-miterlimit="10" enable-background="new    " d="
			M118.525,105.624l38.3,11.7l40,66.3l-40,66.3l-38.3-11.7l-38.3,11.7l-40-66.3l40-66.3L118.525,105.624z M80.226,117.324l-40,66.3
			l40,66.3l38.3,11.7l38.3-11.7l40-66.3l-40-66.3l-38.3-11.7L80.226,117.324z M161.325,167.624l-42.8-62l-42.8,62l42.8,70.6
			L161.325,167.624z M40.226,183.624l35.5-16L40.226,183.624z M196.726,183.624l-35.5-16"/>
		<path fill="none" stroke="#FFFFFF" stroke-width="3" stroke-linejoin="round" stroke-miterlimit="10" d="M80.226,249.924l-40-66.3
			l40-66.3l38.3,11.7l38.3-11.7l40,66.3l-40,66.3l-38.3,11.7L80.226,249.924z M118.525,261.624l38.3-11.7l40-66.3l-40-66.3
			l-38.3-11.7l-38.3,11.7l-40,66.3l40,66.3L118.525,261.624z M118.525,129.024l-42.9,70.6l42.8,62l42.8-62L118.525,129.024z
			 M75.625,199.624l-35.5-16L75.625,199.624z M161.325,199.624l35.5-16"/>
	</g>
</g>
</svg>
